<?xml version="1.0" standalone="no"?>
<!DOCTYPE svg PUBLIC "-//W3C//DTD SVG 20010904//EN"
 "http://www.w3.org/TR/2001/REC-SVG-20010904/DTD/svg10.dtd">
<svg version="1.0" xmlns="http://www.w3.org/2000/svg"
 width="512.000000pt" height="512.000000pt" viewBox="0 0 512.000000 512.000000"
 preserveAspectRatio="xMidYMid meet">
<metadata>
Created by potrace 1.14, written by Peter Selinger 2001-2017
</metadata>
<g transform="translate(0.000000,512.000000) scale(0.100000,-0.100000)"
fill="#000000" stroke="none">
<path d="M2677 4609 c-52 -12 -107 -42 -139 -76 -43 -46 -41 -78 10 -135 38
-42 100 -77 138 -78 17 0 23 -10 35 -57 8 -32 14 -92 14 -133 0 -67 -5 -87
-48 -187 -51 -120 -112 -297 -121 -353 -3 -19 -10 -57 -15 -85 -10 -47 -8
-304 3 -405 3 -25 7 -67 10 -95 25 -233 24 -247 -7 -293 -118 -175 -227 -444
-243 -598 -4 -36 -12 -64 -18 -65 -6 0 -51 -1 -101 -1 -147 -1 -235 -40 -272
-120 -18 -37 -61 -212 -78 -318 -9 -51 -34 -139 -52 -182 -11 -25 -32 -48 -65
-69 -154 -99 -248 -282 -208 -403 23 -69 86 -115 164 -118 36 -2 49 2 65 21
12 13 21 28 21 34 0 14 49 69 78 89 21 13 40 16 93 11 50 -4 74 -1 97 11 56
29 82 109 61 185 -11 38 -10 48 7 80 21 41 66 102 107 145 28 30 43 72 50 141
3 37 5 40 31 37 64 -7 141 -45 187 -93 45 -46 179 -218 179 -229 0 -3 -17 -14
-37 -25 -20 -11 -64 -48 -99 -83 -58 -58 -65 -62 -109 -62 -65 0 -105 -24
-124 -73 -14 -37 -4 -77 46 -184 42 -88 53 -137 41 -180 -6 -24 16 -85 42
-111 64 -68 176 -61 224 13 21 32 50 142 61 230 1 11 3 23 4 26 0 4 43 21 94
39 123 44 253 105 291 137 73 61 74 107 2 314 -92 264 -100 347 -45 428 19 27
35 48 35 48 1 -1 5 -28 8 -59 9 -76 31 -160 56 -208 11 -21 29 -63 39 -92 16
-46 22 -66 37 -123 22 -91 39 -214 51 -365 11 -153 7 -223 -12 -235 -93 -55
-87 -107 20 -159 135 -67 255 -18 301 122 31 92 25 479 -10 706 -3 17 -8 72
-11 121 -7 99 -26 150 -79 225 -18 26 -36 55 -39 66 -3 10 -9 139 -12 286 l-5
266 37 63 c36 60 38 68 35 136 -2 65 1 80 29 133 35 68 35 93 -3 190 -73 188
-196 270 -351 234 -33 -8 -84 -28 -112 -44 -46 -26 -56 -29 -83 -19 -36 12
-42 30 -47 156 -4 99 4 148 41 242 14 35 28 73 30 85 13 60 35 187 40 231 3
28 7 59 9 70 2 11 7 63 11 115 4 52 12 113 19 135 30 102 7 273 -49 369 -36
61 -106 129 -160 155 -51 24 -140 33 -199 20z"/>
</g>
</svg>
